<?xml version="1.0" standalone="no"?>
<!DOCTYPE svg PUBLIC "-//W3C//DTD SVG 20010904//EN"
 "http://www.w3.org/TR/2001/REC-SVG-20010904/DTD/svg10.dtd">
<svg version="1.0" xmlns="http://www.w3.org/2000/svg"
 width="600.000000pt" height="600.000000pt" viewBox="0 0 600.000000 600.000000"
 preserveAspectRatio="xMidYMid meet">
<metadata>
Created by potrace 1.11, written by Peter Selinger 2001-2013
</metadata>
<g transform="translate(0.000000,600.000000) scale(0.100000,-0.100000)"
fill="#000000" stroke="none">
<path d="M2858 5785 c-1 -1 -37 -6 -78 -10 -134 -12 -240 -30 -385 -67 -44
-11 -84 -21 -90 -22 -47 -12 -72 -20 -84 -30 -8 -6 -15 -9 -15 -7 -5 20 -455
-174 -514 -221 -7 -6 -25 -18 -41 -27 -16 -9 -44 -24 -62 -35 -41 -23 -235
-164 -280 -202 -278 -240 -463 -458 -626 -741 -58 -100 -113 -204 -118 -223
-1 -3 -13 -31 -28 -64 -15 -32 -27 -61 -27 -63 0 -3 -7 -19 -15 -36 -47 -103
-128 -403 -150 -560 -3 -23 -8 -49 -10 -57 -26 -99 -26 -591 0 -750 19 -112
27 -157 44 -238 12 -51 23 -98 27 -103 3 -5 7 -21 10 -35 23 -125 158 -445
263 -622 17 -29 31 -57 31 -62 0 -6 3 -10 8 -10 4 0 18 -20 32 -45 14 -25 28
-45 32 -45 5 0 8 -7 8 -15 0 -8 5 -15 10 -15 6 0 10 -6 10 -14 0 -8 3 -16 8
-18 4 -1 27 -30 51 -63 25 -33 47 -62 50 -65 3 -3 31 -34 61 -70 87 -104 227
-239 350 -340 30 -25 57 -47 60 -50 3 -3 12 -9 21 -15 9 -5 58 -39 110 -75 52
-35 96 -65 99 -65 3 0 25 -14 50 -30 212 -136 635 -290 920 -335 41 -6 86 -14
100 -16 113 -19 504 -26 630 -11 131 15 190 24 280 41 79 15 218 53 300 81 41
14 82 27 90 29 8 3 15 5 15 6 0 1 7 3 15 5 74 17 456 209 507 254 7 6 16 11
21 11 4 0 17 8 28 18 27 24 82 62 89 62 3 0 17 11 31 25 14 14 28 25 32 25 4
0 25 16 45 35 20 19 37 33 37 30 0 -8 69 55 180 165 79 79 154 163 267 304 8
10 46 66 84 125 38 58 72 111 77 116 4 6 16 28 27 50 11 22 22 42 26 45 5 5
54 107 92 190 48 106 121 310 131 362 2 15 7 31 10 36 3 5 7 20 10 35 4 15 8
39 12 54 3 15 7 30 9 33 2 4 7 22 10 41 3 19 10 59 15 89 27 158 34 245 34
455 1 200 -9 358 -29 455 -3 14 -8 39 -11 55 -5 26 -15 75 -30 140 -3 11 -7
29 -9 40 -27 127 -179 526 -208 546 -5 3 -8 8 -7 10 5 14 -61 132 -154 274
-66 100 -114 164 -209 279 -48 59 -245 255 -302 301 -28 22 -57 48 -66 57 -9
10 -20 18 -25 18 -5 0 -25 14 -44 30 -19 16 -41 35 -48 41 -7 6 -23 16 -35 23
-12 6 -54 33 -94 59 -39 26 -76 47 -82 47 -6 0 -11 3 -11 8 0 4 -10 12 -23 18
-12 6 -69 35 -126 63 -88 45 -139 69 -161 76 -3 1 -16 6 -30 12 -70 30 -130
52 -130 48 0 -2 -19 4 -42 14 -37 15 -134 45 -186 56 -220 49 -228 50 -317 61
-27 3 -61 8 -75 11 -27 6 -476 13 -482 8z"/>
</g>
</svg>
